<svg xmlns="http://www.w3.org/2000/svg" width="57" height="42.25" viewBox="0 0 57 42.25"><g fill="#414042"><path d="M15.083 18.362c-.127.316-.245.603-.36.873 1.283-.59 2.686-1.09 3.985-1.562-.34-.055-.742-.137-1.207-.278-.634-.052-1.32-.472-1.91-.52-.11.48-.34 1.072-.507 1.487zM10.48 22.832c.358-.975 1.147-1.777 2.17-2.463-.156-1.078.03-.384.25-1.327-.403-.27-.773-.716-1.128-.955-.46.244-.754.647-1.216.955.528 1.098.35.848.138 2.132-.075.444-.19.943-.223 1.338-.014-.016-.033-.06-.038-.048l-.325-.542c-.708-1.18-2.06-3.903-2.154-5.05-.252.005-2.403 4.346-2.27 5.567.132 1.22.12 2.29.582 3.497.522 1.367-.092.578 1 1 .378.144.863.704.863 1.218 0 1.978-2.865 1.945-2.865.087 0-1.324.712.01.01-2.18-.643-2.002.936-8.378-.01-8.408-.885.073-2.942.89-3.646 1.388-.53.374-.887.685-1.186 1.33-.557 7.945 1.724 11.622 5.33 12.366.93.19 1.91.312 2.893.38.2-1.608 1.055-8.178 1.828-10.286z"/><ellipse cx="11.51" cy="10.177" rx="5.423" ry="5.597"/><path d="M23.485 35.316c0 2.965-4.294 2.914-4.294.13 0-1.987 1.067.013.015-3.27-.962-3.004-1.286-8.045-.393-11.166.11-.388.34-1.008.378-1.444-1.327.11-4.413 1.334-5.47 2.082-.792.562-1.33 1.028-1.778 1.993-1.184 2.554-1.69 6.386-2.018 9.31 0 5.95 1.142 9.458 14.71 9.458 3.513 0 12.44-.17 12.44-.17 8.234 0 10.73-4.272 10.73-7.785-.09-.61-.027-2.483-.09-3.064-.244-2.298-.7-4.53-1.402-6.666-.79-2.397-1.896-3.065-4.042-4.03-.657-.296-2.41-.934-3.17-.997.36.745.014 4.25-.26 4.816 3.837 2.03 2.73 4.338 2.605 7.028-.08 1.72-.194 6.77-2.604 6.77-.544 0-1.82.14-1.82-.65 0-1.035.536-.663 1.402-.81.61-.105.642-.328.725-.447.646-.928.793-3.605.862-4.865.078-1.435.49-2.8-.014-4.014-.716-1.718-3.34-2.796-5.224-.702-.563.627-.75 1.433-1.056 2.328-.655 1.93-1.644 3.578-1.644 5.516 0 1.543 1.432.376 1.432 1.95 0 1.156-2.994.395-2.994-1.82 0-1.57.866-3.63 1.413-5.097.22-.593.384-.997.59-1.623.362-1.115.783-2.036 1.584-2.713.977-.823 1.576-1.11 3.312-1.11.415-1.792.546-3.282.13-5.076-.953-.08-1.98-.708-2.863-.78-.17.718-.513 1.607-.763 2.23-.838 2.08-1.416 3.338-2.547 5.26l-.596.968c0-.767-.292-1.826-.428-2.696-.36-2.354-.062-.966.298-2.51-.604-.405-1.16-1.075-1.69-1.43-.692.363-1.13.967-1.824 1.43.79 1.646.525 1.27.204 3.197-.11.666-.285 1.414-.334 2.01-.02-.025-.05-.094-.057-.074l-.488-.813c-1.062-1.77-3.087-5.853-3.23-7.573-.38.008-1.955.422-2.216.776-.884 1.19-1.387 5.74-1.187 7.57.198 1.83.182 3.437.87 5.247.784 2.05-.137.867 1.5 1.496.57.218 1.295 1.058 1.295 1.83zM36.69 8.382c0 4.62-3.64 8.366-8.132 8.366-4.492 0-8.133-3.746-8.133-8.366 0-4.62 3.64-8.366 8.133-8.366 4.492 0 8.132 3.746 8.132 8.366zM41.33 15.968l-3.042.7.195.898 2.81 1.053"/><g><ellipse cx="44.915" cy="9.182" rx="5.423" ry="5.539"/><path d="M48.487 17.31c-.558 1.386-.942 2.227-1.697 3.51l-.397.642c0-.51-.195-1.217-.285-1.798-.24-1.57-.042-.644.198-1.673-.402-.27-.773-.716-1.13-.955-.46.244-.75.646-1.213.956.5 1.045.365.87.166 1.956.97.528 1.72 1.073 2.037 1.6.353.585.69 1.15 1.003 1.786.142-.38.252-.647.385-1.056.242-.744.522-1.358 1.057-1.808.65-.55 1.052-.74 2.207-.74.277-1.195.365-2.19.088-3.386-.636-.052-1.32-.473-1.91-.52-.113.48-.342 1.07-.51 1.487zM41.36 15.82c-.128.003-.74 1.113-1.298 2.367.864.315 1.74.66 2.557 1.022-.604-1.224-1.198-2.642-1.26-3.39z"/><path d="M56.754 20.04c-.525-1.598-1.26-2.044-2.694-2.688-.437-.196-1.607-.623-2.112-.664.24.496.01 2.833-.173 3.21 2.557 1.354 1.818 2.892 1.735 4.686-.055 1.147-.13 4.514-1.735 4.514-.363 0-1.216.093-1.216-.435 0-.688.357-.44.935-.538.406-.07.428-.22.484-.3.428-.618.526-2.403.573-3.243.052-.955.327-1.867-.01-2.677-.476-1.144-2.227-1.864-3.482-.466-.375.416-.5.952-.703 1.55-.19.566-.427 1.097-.63 1.624.582 1.564 1.035 3.67 1.278 7.125l1.59-.024c.263 0 6.805.008 6.16-11.676zM38.977 17.803c.02-.723-.052-1.193-.308-1.2-.428.035-1.13.244-1.822.507.627.194 1.357.428 2.13.693z"/></g></g></svg>