<svg xmlns="http://www.w3.org/2000/svg" width="90" height="55" viewBox="0 0 90 55"><path fill="#FFF" d="M62.645 39.733l-5.897-.743 6.007-10.157c-1.242-1.978-1.896-4.24-1.896-6.59 0-6.86 5.58-12.442 12.437-12.442s12.438 5.58 12.438 12.438c0 2.367-.663 4.646-1.922 6.635l5.872 10.102-5.886.743-3.493 4.778-5.945-9.86c-.36.03-.714.046-1.064.046-.376 0-.755-.018-1.133-.05l-6.028 9.874-3.492-4.773z"/><path fill="#414042" d="M73.295 33.624c-6.272 0-11.38-5.106-11.38-11.38 0-6.28 5.107-11.39 11.38-11.39 6.273 0 11.38 5.11 11.38 11.383 0 6.28-5.107 11.387-11.38 11.387z"/><path fill="none" stroke="#FFF" stroke-width="1.463" stroke-miterlimit="10" d="M73.295 31.06c-4.858 0-8.815-3.956-8.815-8.816 0-4.865 3.957-8.82 8.815-8.82 4.86 0 8.815 3.956 8.815 8.814 0 4.866-3.955 8.82-8.815 8.822z"/><path fill="#414042" d="M63.55 29.524l-5.075 8.618 4.754.6 2.823 3.867 5.04-8.554c-3.23-.44-5.726-1.98-7.543-4.532zM82.97 29.575l4.996 8.55-4.753.6-2.826 3.867-5.037-8.553c3.338-.585 5.653-1.94 7.62-4.465z"/><path fill="#FFF" d="M73.285 16.227c-1.424 0-2.576 1.154-2.576 2.577 0 1.085.67 2.012 1.626 2.39-.466.843-3.432.987-3.432 2.91 0 1.087-.013 1.833.646 2.847-.097.54-.217 1.664.47 2.315.85.578 1.356.468 1.933.377.486-.08.545-.038.825-.104.17.03.335.05.507.05 2.306 0 4.19-2.78 4.364-5.135.22-.335.35-.734.35-1.162 0-1.176-.957-2.136-2.137-2.136-.508 0-.97.185-1.335.48-.155-.12-.272-.258-.323-.43.97-.37 1.658-1.302 1.658-2.4 0-1.424-1.154-2.577-2.578-2.577"/><path fill="#414042" d="M75.49 25.04c.56.84-.113 2.32-1.532 3.332-1.432 1.024-3.077 1.177-3.675.344-.596-.834.082-2.34 1.516-3.365.83-.593 1.728-.885 2.455-.87-.236-.277-.384-.633-.384-1.025 0-.876.71-1.586 1.587-1.586.874 0 1.586.708 1.586 1.585 0 .866-.693 1.565-1.553 1.584z"/><path fill="#FFF" d="M73.32 26.082s-.17-.93-.697-.66c-.527.268-.168 1.34.554 2.01 1.248-.6 1.75-1.32 1.292-1.722-.46-.403-1.15.372-1.15.372z"/><g><path fill="#FFF" d="M6.13 39.733L.233 38.99 6.24 28.833c-1.243-1.978-1.898-4.24-1.898-6.59 0-6.86 5.58-12.443 12.438-12.443 6.858 0 12.438 5.58 12.438 12.437 0 2.367-.664 4.646-1.923 6.635l5.873 10.102-5.886.743-3.493 4.778-5.946-9.86c-.357.03-.713.046-1.064.046-.376 0-.754-.017-1.132-.05l-6.03 9.875-3.487-4.772z"/><path fill="#414042" d="M16.78 33.624c-6.273 0-11.38-5.106-11.38-11.38 0-6.28 5.107-11.39 11.38-11.39 6.275 0 11.38 5.11 11.38 11.383 0 6.28-5.105 11.387-11.38 11.387z"/><path fill="none" stroke="#FFF" stroke-width="1.463" stroke-miterlimit="10" d="M16.78 31.06c-4.86 0-8.815-3.956-8.815-8.816 0-4.865 3.957-8.82 8.815-8.82 4.86 0 8.815 3.956 8.815 8.814 0 4.866-3.954 8.82-8.815 8.822z"/><path fill="#414042" d="M7.036 29.524L1.96 38.142l4.754.6 2.825 3.867 5.04-8.554c-3.23-.44-5.728-1.98-7.544-4.532zM26.454 29.575l5 8.55-4.755.6-2.826 3.867-5.04-8.553c3.338-.585 5.656-1.94 7.62-4.465z"/><path fill="#FFF" d="M16.77 16.227c-1.423 0-2.576 1.154-2.576 2.577 0 1.085.674 2.012 1.627 2.39-.465.843-3.43.987-3.43 2.91 0 1.087-.013 1.833.645 2.847-.097.54-.216 1.664.47 2.315.85.578 1.355.468 1.932.377.487-.08.543-.038.826-.104.167.03.334.05.506.05 2.304 0 4.187-2.78 4.362-5.135.22-.335.353-.734.353-1.163 0-1.177-.958-2.137-2.137-2.137-.507 0-.968.185-1.335.48-.156-.12-.27-.258-.324-.43.968-.37 1.658-1.302 1.658-2.4 0-1.423-1.155-2.576-2.577-2.576"/><path fill="#414042" d="M18.976 25.04c.56.84-.114 2.32-1.53 3.332-1.435 1.024-3.08 1.177-3.676.344-.596-.834.082-2.34 1.516-3.365.832-.593 1.727-.885 2.456-.87-.236-.277-.385-.633-.385-1.025 0-.876.71-1.586 1.585-1.586.876 0 1.586.708 1.586 1.585 0 .866-.693 1.565-1.552 1.584z"/><path fill="#FFF" d="M16.805 26.082s-.167-.93-.696-.66c-.53.268-.17 1.34.55 2.01 1.25-.6 1.754-1.32 1.295-1.722-.46-.403-1.15.372-1.15.372z"/></g><g><path fill="#FFF" d="M28.847 47.173l-8.902-1.12 9.067-15.33c-1.876-2.987-2.863-6.403-2.863-9.948 0-10.356 8.42-18.783 18.772-18.783 10.35 0 18.773 8.422 18.773 18.773 0 3.572-1 7.012-2.9 10.014l8.863 15.25-8.884 1.116L55.5 54.36 46.528 39.48c-.54.047-1.077.07-1.607.07-.567 0-1.137-.025-1.71-.08l-9.1 14.908-5.263-7.203z"/><path fill="#414042" d="M44.92 37.954c-9.468 0-17.178-7.71-17.178-17.18 0-9.478 7.71-17.188 17.18-17.188 9.47 0 17.18 7.71 17.18 17.18 0 9.48-7.71 17.188-17.18 17.188z"/><path fill="none" stroke="#FFF" stroke-width="2.208" stroke-miterlimit="10" d="M44.92 34.08c-7.333 0-13.306-5.97-13.306-13.307 0-7.343 5.972-13.313 13.307-13.313 7.337 0 13.31 5.97 13.31 13.306 0 7.343-5.972 13.314-13.31 13.314z"/><path fill="#414042" d="M30.214 31.765l-7.663 13.01 7.178.905 4.264 5.833 7.605-12.906c-4.873-.666-8.643-2.99-11.383-6.842zM59.52 31.842l7.55 12.905-7.176.905-4.267 5.834-7.602-12.907c5.036-.88 8.536-2.932 11.496-6.738z"/><path fill="#FFF" d="M44.908 11.693c-2.15 0-3.89 1.74-3.89 3.89 0 1.64 1.018 3.036 2.455 3.61-.702 1.27-5.177 1.487-5.177 4.39 0 1.643-.02 2.77.972 4.298-.145.812-.327 2.51.71 3.493 1.282.873 2.047.71 2.918.57.732-.118.818-.058 1.247-.158.25.045.504.075.764.075 3.478 0 6.322-4.196 6.585-7.75.334-.505.533-1.108.533-1.754.002-1.776-1.446-3.225-3.226-3.225-.77 0-1.465.28-2.018.727-.233-.184-.407-.393-.49-.647 1.465-.562 2.507-1.966 2.507-3.625 0-2.15-1.743-3.892-3.892-3.892"/><path fill="#414042" d="M48.237 24.993c.844 1.268-.175 3.503-2.314 5.032-2.162 1.545-4.648 1.776-5.547.518-.9-1.258.125-3.532 2.29-5.078 1.253-.897 2.606-1.335 3.706-1.315-.36-.416-.582-.954-.582-1.546 0-1.324 1.072-2.395 2.395-2.395 1.32 0 2.394 1.07 2.394 2.394 0 1.305-1.048 2.36-2.343 2.39z"/><path fill="#FFF" d="M44.96 26.567s-.255-1.402-1.052-.997c-.797.407-.252 2.023.833 3.037 1.884-.906 2.647-1.992 1.954-2.6-.694-.608-1.734.56-1.734.56z"/></g></svg>