<svg xmlns="http://www.w3.org/2000/svg" width="54" height="69" viewBox="0 0 54 69"><linearGradient id="a" gradientUnits="userSpaceOnUse" x1="11.576" y1="34.522" x2="44.101" y2="34.522"><stop offset="0" stop-color="#E57AA8"/><stop offset=".296" stop-color="#E95D7B"/><stop offset=".646" stop-color="#EC3350"/><stop offset=".807" stop-color="#ED193F"/></linearGradient><path fill="url(#a)" d="M42.48 20.393c-9.698 5.946-16.69 13.455-19.527 16.793l-7.288-5.71c-.192-.14-4.193 3.412-4.087 3.523L24.85 48.494c.097.11.232.16.377.16.026 0 .066 0 .102-.01.173-.04.322-.155.387-.328 2.137-5.468 9.197-16.913 18.215-25.213.16-.152.216-.39.128-.596-.003-.004-1.444-2.198-1.58-2.115z"/><path fill="#414042" d="M51.187 8.448C31.09 8.448 27.69.82 27.66.748c-.148-.373-.513-.622-.925-.63h-.017c-.4 0-.768.25-.928.614-.024.08-3.497 7.716-23.52 7.716-.558 0-1 .454-1 1V43.63c0 13.994 24.035 24.684 25.052 25.133.135.06.262.08.407.08.13 0 .274-.02.402-.08 1.026-.45 25.056-11.14 25.056-25.132V9.45c-.005-.548-.45-1.002-1-1.002zm-1.54 34.27c0 12.588-21.638 22.22-22.56 22.618-.11.058-.243.077-.36.077-.126 0-.245-.02-.362-.077-.912-.4-22.556-10.03-22.556-22.62V11.952c0-.495.402-.905.903-.905 18.023 0 21.148-6.872 21.176-6.938.142-.332.472-.556.832-.556h.016c.37.005.696.23.828.57.03.064 3.092 6.925 21.178 6.925.502 0 .9.41.9.906l.002 30.767z"/></svg>