<svg xmlns="http://www.w3.org/2000/svg" width="46.917" height="44.417" viewBox="0 0 46.917 44.417"><path fill="none" d="M-2.25-4.994h50.743v50.946H-2.25z"/><defs><path id="a" d="M3.19 1.17H44.16v43.898H3.19z"/></defs><path fill="#FFF" d="M42.842 29.32c2.424-3.18 3.705-6.98 3.705-10.995C46.547 8.3 38.393.14 28.37.14c-3.044 0-6.05.767-8.697 2.213-.705.384-.967 1.27-.585 1.978.255.473.746.767 1.283.767.243 0 .485-.062.7-.18 2.226-1.212 4.75-1.853 7.298-1.853 8.412 0 15.256 6.846 15.256 15.26 0 3.374-1.074 6.565-3.105 9.227-.91 1.19-1.972 2.235-3.15 3.1-.253.18-.41.438-.51.726L31 25.514c-.666-.666-1.75-.666-2.418 0l-4.17 4.193c-.88.443-3.716-.32-6.54-3.144s-3.586-5.66-3.145-6.54l4.193-4.17c.668-.67.668-1.75 0-2.418L8.854 3.37c-.666-.67-1.75-.67-2.417 0l-4.03 4.025c-2.63 2.634-3.124 6.953-1.387 12.16 1.603 4.813 4.957 9.933 9.442 14.42 6.684 6.683 14.297 10.44 20.088 10.44 2.62 0 4.87-.77 6.488-2.39L41.068 38c.667-.668.667-1.75 0-2.417l-2.372-2.372c.137-.045.268-.107.387-.192 1.417-1.038 2.68-2.28 3.76-3.697zM7.646 6.998l7.648 7.648-1.608 1.608-7.65-7.65 1.61-1.606zM25.96 40.172c-4.316-1.438-8.96-4.5-13.08-8.617-4.117-4.117-7.177-8.764-8.615-13.08-.973-2.915-1.092-5.427-.386-7.192l7.62 7.62c-.972 2.645.513 6.638 3.953 10.08C18.2 31.73 21.3 33.23 23.785 33.23c.627 0 1.215-.096 1.748-.292l7.617 7.618c-1.765.707-4.276.587-7.19-.384zm9.873-1.772l-7.648-7.648 1.607-1.607 7.648 7.647-1.607 1.608z"/></svg>