<?xml version="1.0" encoding="utf-8"?>
<!-- Generator: Adobe Illustrator 16.0.0, SVG Export Plug-In . SVG Version: 6.00 Build 0)  -->
<!DOCTYPE svg PUBLIC "-//W3C//DTD SVG 1.1//EN" "http://www.w3.org/Graphics/SVG/1.1/DTD/svg11.dtd">
<svg version="1.1" id="Layer_1" xmlns="http://www.w3.org/2000/svg" xmlns:xlink="http://www.w3.org/1999/xlink" x="0px" y="0px"
	 width="141.73px" height="42.742px" viewBox="0 0 141.73 42.742" enable-background="new 0 0 141.73 42.742" xml:space="preserve">
<path fill="#231F20" d="M29.966,7.917c-0.342,1.025-0.373,1.643-0.176,2.756c0.16,0.903,0.315,1.78-0.123,2.565
	c0.85,0.237,1.366,0.979,1.892,1.737c0.641,0.922,1.09,1.335,2.051,1.818c-0.994,0.463-1.441,0.861-2.09,1.815
	c-0.51,0.753-1.005,1.482-1.862,1.72c0.451,0.815,0.292,1.671,0.127,2.558c-0.208,1.111-0.161,1.734,0.181,2.766
	c-1.029-0.386-1.625-0.427-2.751-0.213c-0.877,0.168-1.722,0.33-2.5-0.105c-0.237,0.857-0.964,1.37-1.709,1.896
	c-0.919,0.647-1.328,1.103-1.806,2.072c-0.459-1.003-0.854-1.45-1.797-2.106c-0.746-0.521-1.472-1.028-1.702-1.877
	c-0.788,0.444-1.647,0.288-2.536,0.125c-1.103-0.205-1.716-0.166-2.733,0.181c0.379-1.04,0.419-1.644,0.206-2.779
	c-0.165-0.879-0.325-1.728,0.105-2.517c-0.821-0.232-1.325-0.966-1.846-1.72c-0.653-0.949-1.09-1.353-2.083-1.815
	c0.961-0.483,1.409-0.896,2.052-1.822c0.523-0.755,1.03-1.489,1.882-1.73c-0.438-0.794-0.276-1.645-0.108-2.52
	c0.218-1.138,0.171-1.741-0.208-2.781c1.017,0.345,1.633,0.387,2.734,0.184c0.886-0.167,1.742-0.327,2.538,0.127
	c0.241-0.874,0.956-1.367,1.698-1.876c0.946-0.653,1.339-1.107,1.798-2.115c0.479,0.973,0.884,1.435,1.806,2.076
	c0.741,0.521,1.462,1.025,1.708,1.896c0.766-0.435,1.62-0.273,2.503-0.108C28.341,8.336,28.938,8.3,29.966,7.917"/>
<path fill="#E42227" d="M29.001,8.918c-0.639,0.095-1.277-0.026-1.905-0.142c-1.474-0.281-1.922-0.175-2.931,0.804
	c-0.043-1.42-0.294-1.833-1.533-2.697c-0.508-0.356-1.027-0.719-1.413-1.224c-0.387,0.532-0.924,0.9-1.45,1.263
	c-1.23,0.846-1.473,1.256-1.511,2.658c-1.027-0.958-1.501-1.081-2.974-0.806c-0.606,0.113-1.227,0.228-1.858,0.144
	c0.1,0.656-0.023,1.299-0.142,1.928c-0.281,1.468-0.151,1.937,0.782,2.963c-1.412,0.024-1.8,0.297-2.663,1.545
	c-0.355,0.513-0.717,1.036-1.211,1.421c0.503,0.383,0.877,0.926,1.243,1.455c0.872,1.265,1.235,1.519,2.659,1.503
	c-0.956,1.035-1.094,1.487-0.812,2.989c0.118,0.629,0.239,1.273,0.142,1.926c0.625-0.082,1.247,0.033,1.856,0.145
	c1.506,0.275,1.966,0.146,3-0.843c-0.002,1.433,0.233,1.821,1.494,2.699c0.526,0.368,1.062,0.745,1.445,1.259
	c0.379-0.497,0.899-0.862,1.407-1.221c1.244-0.876,1.505-1.272,1.527-2.703c1.015,0.965,1.466,1.086,2.94,0.804
	c0.624-0.118,1.261-0.239,1.903-0.141c-0.085-0.647,0.031-1.274,0.145-1.884c0.274-1.477,0.135-1.964-0.794-3.011
	c1.395-0.019,1.788-0.273,2.632-1.517c0.358-0.53,0.728-1.072,1.248-1.46c-0.486-0.385-0.847-0.907-1.204-1.42
	c-0.893-1.284-1.283-1.532-2.728-1.532c1-1.039,1.119-1.495,0.848-3.034C29.033,10.171,28.924,9.543,29.001,8.918"/>
<polygon fill-rule="evenodd" clip-rule="evenodd" fill="#231F20" points="22.78,6.638 22.761,18.352 19.659,18.352 19.639,6.638 
	15.094,6.638 15.094,3.522 19.667,3.522 19.667,1.141 22.755,1.141 22.755,3.522 27.329,3.522 27.329,6.638 "/>
<polygon fill-rule="evenodd" clip-rule="evenodd" fill="#FFFFFF" points="20.348,17.668 22.076,17.668 22.076,5.954 26.646,5.954 
	26.646,4.208 22.076,4.208 22.076,1.826 20.348,1.826 20.348,4.208 15.772,4.208 15.772,5.954 20.348,5.954 "/>
<path fill-rule="evenodd" clip-rule="evenodd" fill="#00A050" d="M15.097,28.925c-2.086-0.729-3.576-1.975-5.624-3.773
	c1.106,1.703,3.319,3.527,5.284,4.421C16.819,30.503,16.77,29.511,15.097,28.925 M9.735,29.159l-2.117-0.584
	c0.818,0.901,2.178,1.773,3.174,2.031H9.102c0.765,0.512,1.978,0.979,3.12,1.218l-1.27,0.172c1.653,0.907,3.947,1.736,5.438,0.158
	c0.368-0.394,0.787-0.474,1.127-0.426c0.779,0.107-0.197,2.002,1.934,1.739c0.608-0.076,1.148-0.701,1.337-1.353
	c0.182-0.641,0.144-1.55-0.583-1.686c-1.217-0.224-0.956,1.278-1.678,1.195c-0.191-0.023-0.302-0.46-0.329-1.195
	c-0.028-1.354-0.729-1.245-1.853-1.676c-4.452-1.725-7.133-3.956-8.671-8.353c-0.987-2.807-0.785-5.628,0.036-8.25
	c0.646-2.061,1.725-3.656,3.082-5.346C9.432,7.55,8.662,8.623,7.938,9.851L7.784,8.254c-0.469,1.123-0.707,2.405-0.845,3.583
	c-0.116-0.085-0.524-0.497-0.694-0.999c-0.104,1.516-0.228,2.675-0.104,4.287l-0.897-1.913l0.314,2.957L4.87,15.125
	c0.199,1.583,0.691,2.269,1.168,3.796c-0.531-0.281-0.628-0.608-1.062-1.013c0.327,2.05,0.483,2.599,1.532,4.347
	c-0.475-0.172-0.951-0.5-1.428-0.869c0.592,1.377,1.271,2.521,2.062,3.766l-1.322-0.865c0.512,1.392,1.083,1.885,2.223,2.783
	l-1.428-0.406C7.267,27.629,8.131,28.247,9.735,29.159"/>
<path fill-rule="evenodd" clip-rule="evenodd" fill="#00A050" d="M27.324,28.925c2.083-0.729,3.574-1.975,5.623-3.773
	c-1.106,1.703-3.32,3.527-5.284,4.421C25.599,30.503,25.65,29.511,27.324,28.925 M32.682,29.159l2.116-0.584
	c-0.815,0.901-2.174,1.773-3.174,2.031h1.693c-0.765,0.512-1.977,0.979-3.12,1.218l1.269,0.172
	c-1.652,0.907-3.945,1.736-5.432,0.158c-0.374-0.394-0.79-0.474-1.131-0.426c-0.781,0.107,0.195,2.002-1.934,1.739
	c-0.61-0.076-1.152-0.701-1.337-1.353c-0.181-0.641-0.145-1.55,0.583-1.686c1.219-0.224,0.956,1.278,1.678,1.195
	c0.192-0.023,0.301-0.46,0.333-1.195c0.023-1.354,0.726-1.245,1.849-1.676c4.451-1.725,7.132-3.956,8.672-8.353
	c0.986-2.807,0.783-5.628-0.04-8.25c-0.645-2.061-1.723-3.656-3.079-5.346c1.358,0.745,2.13,1.818,2.854,3.045l0.156-1.597
	c0.466,1.123,0.707,2.405,0.844,3.583c0.113-0.085,0.525-0.497,0.692-0.999c0.104,1.516,0.226,2.675,0.104,4.287l0.903-1.913
	l-0.32,2.957l0.688-1.044c-0.198,1.583-0.688,2.269-1.169,3.796c0.532-0.281,0.63-0.608,1.065-1.013
	c-0.332,2.05-0.487,2.599-1.536,4.347c0.477-0.172,0.952-0.5,1.428-0.869c-0.591,1.377-1.269,2.521-2.061,3.766l1.318-0.865
	c-0.507,1.392-1.077,1.885-2.22,2.783l1.429-0.406C35.15,27.629,34.289,28.247,32.682,29.159"/>
<path fill-rule="evenodd" clip-rule="evenodd" fill="#231F20" d="M26.646,12.081c1.674,5.93-0.8,10.177-4.78,12.094v-3.374
	c1.18-0.471,1.894-0.755,2.043-1.401c0.145-0.622,0.139-0.888,0.119-2.21c-0.012-0.926,1.124-1.49,1.43-0.224
	C26.099,15.651,26.584,13.52,26.646,12.081"/>
<path fill-rule="evenodd" clip-rule="evenodd" fill="#FFFFFF" d="M26.665,14.417c0.202,1.406-0.138,3.564-0.808,5.031
	c-0.773,1.704-1.833,2.691-3.303,3.636v-1.895c1.323-0.651,1.666-0.998,1.852-1.448c0.217-0.516,0.177-1.154,0.166-2.144
	c-0.011-0.688,0.342-0.913,0.443-0.18c0.138,0.966,0.584,0.629,0.864-0.046C26.253,16.456,26.591,15.394,26.665,14.417"/>
<path fill-rule="evenodd" clip-rule="evenodd" fill="#231F20" d="M15.777,12.081c-1.676,5.93,0.8,10.177,4.782,12.094v-3.374
	c-1.184-0.471-1.895-0.755-2.048-1.401c-0.141-0.622-0.135-0.888-0.115-2.21c0.013-0.926-1.123-1.49-1.428-0.224
	C16.321,15.651,15.833,13.52,15.777,12.081"/>
<path fill-rule="evenodd" clip-rule="evenodd" fill="#FFFFFF" d="M15.755,14.417c-0.203,1.406,0.139,3.564,0.809,5.031
	c0.776,1.704,1.839,2.691,3.3,3.636v-1.895c-1.319-0.651-1.661-0.998-1.848-1.448c-0.217-0.516-0.178-1.154-0.164-2.144
	c0.012-0.688-0.342-0.913-0.447-0.18c-0.137,0.966-0.583,0.629-0.861-0.046C16.169,16.456,15.829,15.394,15.755,14.417"/>
<path fill-rule="evenodd" clip-rule="evenodd" fill="#231F20" d="M41.168,28.462l-3.288-1.548l0.305-0.66l1.219,0.574l0.095-0.207
	l-1.217-0.574l0.305-0.665l3.289,1.55l-0.308,0.663l-1.589-0.748l-0.096,0.208l1.591,0.748L41.168,28.462z M40.588,29.54
	l-3.142-1.832l0.362-0.634l3.143,1.832L40.588,29.54z M36.944,29.71c-0.193-0.126-0.306-0.29-0.332-0.485
	c-0.024-0.194,0.035-0.407,0.18-0.633c0.146-0.228,0.314-0.368,0.5-0.421c0.189-0.052,0.381-0.012,0.583,0.119l0.497,0.326
	l-0.393,0.608l-0.54-0.354c-0.056-0.037-0.099-0.054-0.13-0.052c-0.031,0.001-0.058,0.019-0.084,0.057
	c-0.024,0.041-0.031,0.075-0.018,0.105c0.014,0.032,0.046,0.065,0.097,0.1l0.269,0.176c0.048,0.028,0.091,0.049,0.132,0.06
	c0.041,0.013,0.085,0.015,0.134,0.007l1.021-0.169c0.094-0.016,0.183-0.016,0.265,0.008c0.081,0.019,0.194,0.072,0.339,0.17
	l0.354,0.229c0.194,0.13,0.307,0.291,0.331,0.483c0.025,0.194-0.037,0.406-0.184,0.633c-0.15,0.238-0.321,0.379-0.508,0.426
	c-0.188,0.049-0.386,0.002-0.601-0.139l-0.571-0.375l0.392-0.609l0.612,0.402c0.053,0.033,0.096,0.052,0.13,0.049
	c0.033,0,0.064-0.019,0.088-0.058c0.023-0.035,0.028-0.07,0.017-0.099c-0.012-0.034-0.045-0.066-0.099-0.101l-0.322-0.212
	c-0.044-0.028-0.09-0.047-0.139-0.056c-0.047-0.01-0.107-0.01-0.175,0l-0.979,0.146c-0.098,0.018-0.189,0.018-0.269-0.002
	c-0.081-0.019-0.173-0.061-0.28-0.133l-0.046-0.028L36.944,29.71z M37.38,31.584l0.17-0.21l-0.912-0.642
	c-0.05-0.036-0.142-0.104-0.27-0.204c-0.055-0.044-0.097-0.077-0.127-0.103l-0.017,0.021c0.102,0.095,0.186,0.169,0.246,0.224
	c0.062,0.06,0.103,0.095,0.12,0.115L37.38,31.584z M38.037,33.171l-2.454-2.758l0.583-0.729l3.088,1.969l-0.47,0.589l-0.796-0.558
	l-0.228,0.281l0.694,0.687L38.037,33.171z M36.649,34.638l-2.61-2.546l0.504-0.524l1.151,1.121l0.005-0.007l-0.898-1.384l0.48-0.503
	l0.77,1.379l1.842,1.161l-0.5,0.524l-1.579-1.067l-0.006,0.009l1.346,1.31L36.649,34.638z M34.081,36.788l-2.233-2.886l0.784-0.617
	l1.146,1.065c0.103,0.097,0.213,0.206,0.331,0.333c0.12,0.124,0.25,0.27,0.395,0.438l0.024-0.02
	c-0.169-0.195-0.312-0.368-0.435-0.517c-0.121-0.147-0.208-0.255-0.26-0.32l-0.93-1.194l0.451-0.353l2.232,2.886l-0.671,0.529
	l-1.505-1.338c-0.059-0.051-0.146-0.133-0.257-0.244c-0.114-0.108-0.237-0.231-0.37-0.365l-0.015,0.013
	c0.102,0.115,0.189,0.214,0.263,0.303c0.076,0.087,0.132,0.159,0.178,0.216l1.329,1.716L34.081,36.788z M32.03,36.344l0.229-0.144
	l-0.657-0.903c-0.036-0.052-0.1-0.146-0.189-0.281c-0.037-0.061-0.067-0.106-0.088-0.141l-0.022,0.016
	c0.067,0.122,0.121,0.218,0.162,0.294c0.039,0.073,0.064,0.123,0.076,0.145L32.03,36.344z M32.137,38.064l-1.432-3.419l0.788-0.493
	l2.284,2.877l-0.637,0.402l-0.572-0.792l-0.302,0.193l0.432,0.876L32.137,38.064z M30.32,38.992l-1.646-3.265l0.754-0.385
	c0.273-0.143,0.498-0.184,0.672-0.122c0.175,0.062,0.338,0.241,0.486,0.535l0.834,1.653c0.149,0.294,0.192,0.534,0.131,0.718
	c-0.061,0.188-0.235,0.353-0.521,0.501L30.32,38.992z M29.537,35.838l1.192,2.361l0.036-0.018c0.065-0.035,0.107-0.072,0.122-0.116
	c0.013-0.042,0.002-0.095-0.03-0.161l-1.004-1.99c-0.037-0.073-0.077-0.115-0.118-0.128C29.691,35.775,29.626,35.792,29.537,35.838
	 M27.192,40.129l-1.122-3.483l0.947-0.307l0.717,1.391c0.064,0.128,0.129,0.27,0.198,0.43c0.069,0.157,0.142,0.341,0.22,0.549
	l0.029-0.012c-0.092-0.24-0.168-0.453-0.233-0.633c-0.063-0.183-0.108-0.313-0.134-0.395l-0.471-1.441l0.541-0.177l1.122,3.481
	l-0.809,0.269l-0.962-1.777c-0.037-0.068-0.092-0.175-0.162-0.318c-0.068-0.143-0.142-0.299-0.221-0.469l-0.018,0.005
	c0.055,0.142,0.103,0.266,0.145,0.373c0.04,0.106,0.072,0.194,0.092,0.266l0.669,2.07L27.192,40.129z M25.384,39.005l0.261-0.059
	l-0.327-1.07c-0.018-0.062-0.047-0.171-0.088-0.33c-0.017-0.07-0.03-0.122-0.039-0.163l-0.025,0.008
	c0.022,0.138,0.043,0.25,0.057,0.33c0.016,0.084,0.021,0.14,0.024,0.166L25.384,39.005z M24.932,40.667l-0.25-3.7l0.903-0.212
	l1.234,3.472l-0.732,0.171L25.8,39.463l-0.35,0.082l0.127,0.973L24.932,40.667z M23.071,40.864l-0.443-3.637l0.84-0.104
	c0.287-0.035,0.506-0.009,0.652,0.079c0.147,0.091,0.235,0.25,0.262,0.478l0.095,0.776c0.034,0.281-0.009,0.491-0.126,0.628
	c-0.118,0.136-0.333,0.223-0.647,0.261l-0.086,0.014l0.172,1.415L23.071,40.864z M23.771,38.621l-0.1-0.844
	c-0.01-0.081-0.031-0.136-0.065-0.161c-0.033-0.023-0.09-0.029-0.171-0.02l-0.03,0.001l0.153,1.254l0.043-0.006
	c0.074-0.01,0.125-0.032,0.148-0.064C23.772,38.748,23.781,38.696,23.771,38.621 M21.534,39.449l0.27-0.004l-0.101-1.114
	c-0.005-0.063-0.01-0.177-0.018-0.344c-0.004-0.07-0.006-0.125-0.006-0.165h-0.026c-0.005,0.142-0.009,0.254-0.01,0.338
	c-0.004,0.084-0.009,0.14-0.012,0.166L21.534,39.449z M20.75,40.977l0.516-3.675l0.927-0.013l0.494,3.654l-0.752,0.015l-0.088-0.975
	l-0.359,0.005l-0.078,0.978L20.75,40.977z M18.719,40.835l0.253-3.656l0.844,0.061c0.294,0.02,0.501,0.089,0.628,0.201
	c0.125,0.115,0.18,0.289,0.164,0.52l-0.025,0.384c-0.015,0.193-0.07,0.334-0.171,0.433c-0.1,0.094-0.243,0.139-0.428,0.139l0,0.019
	c0.203,0.029,0.346,0.09,0.421,0.184c0.078,0.098,0.108,0.255,0.094,0.471l-0.066,0.93c-0.003,0.073-0.003,0.149,0.003,0.223
	c0.005,0.077,0.016,0.15,0.034,0.218l-0.715-0.053c-0.017-0.062-0.03-0.136-0.039-0.211c-0.006-0.076-0.006-0.16,0-0.247
	l0.009-0.135l0.056-0.795c0.006-0.103-0.009-0.181-0.042-0.235c-0.035-0.057-0.09-0.086-0.167-0.09l-0.011-0.002l-0.117,1.692
	L18.719,40.835z M19.849,38.502l0.041-0.583c0.005-0.083-0.006-0.14-0.037-0.17s-0.092-0.049-0.189-0.054l-0.07,0.998l0.039,0.002
	c0.076,0.006,0.13-0.007,0.162-0.037C19.826,38.632,19.843,38.578,19.849,38.502 M17.508,39.077l0.263,0.046l0.113-1.115
	c0.008-0.062,0.021-0.176,0.045-0.338c0.014-0.072,0.021-0.125,0.027-0.165l-0.028-0.006c-0.028,0.141-0.054,0.248-0.072,0.331
	c-0.019,0.081-0.034,0.134-0.041,0.159L17.508,39.077z M16.448,40.423l1.201-3.506l0.914,0.164l-0.208,3.683l-0.74-0.133
	l0.099-0.973l-0.353-0.063l-0.26,0.945L16.448,40.423z M14.438,39.889l0.938-3.537l0.697,0.189l-0.349,1.312l0.22,0.058l0.347-1.312
	l0.701,0.188l-0.938,3.539l-0.701-0.188l0.454-1.71l-0.22-0.061l-0.454,1.71L14.438,39.889z M13.441,36.52
	c0.122-0.319,0.27-0.522,0.44-0.612c0.174-0.086,0.403-0.074,0.686,0.036c0.265,0.102,0.438,0.24,0.522,0.416
	c0.082,0.175,0.078,0.39-0.019,0.64l-0.195,0.51l-0.67-0.258l0.23-0.608c0.023-0.061,0.031-0.108,0.022-0.138
	c-0.008-0.031-0.033-0.054-0.078-0.073c-0.04-0.013-0.073-0.013-0.101,0.006c-0.026,0.021-0.051,0.058-0.073,0.115l-0.849,2.232
	c-0.022,0.061-0.028,0.106-0.022,0.141c0.008,0.031,0.031,0.054,0.072,0.069c0.042,0.02,0.079,0.016,0.106-0.004
	c0.029-0.02,0.051-0.058,0.074-0.115l0.229-0.603l-0.17-0.067l0.2-0.527l0.843,0.323l-0.66,1.741l-0.333-0.13l0.036-0.229
	c-0.115,0.07-0.23,0.11-0.343,0.123c-0.115,0.014-0.23-0.004-0.342-0.047c-0.214-0.082-0.341-0.217-0.389-0.406
	c-0.049-0.19-0.018-0.433,0.098-0.73L13.441,36.52z M10.337,38.081l1.646-3.267l0.883,0.457l-0.468,1.5
	c-0.043,0.136-0.095,0.28-0.158,0.443c-0.062,0.161-0.138,0.342-0.228,0.546l0.024,0.013c0.108-0.235,0.2-0.44,0.281-0.612
	c0.083-0.177,0.143-0.302,0.181-0.376l0.677-1.354l0.505,0.259l-1.645,3.265l-0.759-0.389l0.566-1.943
	c0.02-0.078,0.057-0.189,0.109-0.339c0.05-0.15,0.106-0.314,0.17-0.492l-0.017-0.008c-0.06,0.139-0.114,0.263-0.16,0.366
	s-0.086,0.19-0.118,0.255l-0.98,1.94L10.337,38.081z M8.801,37.123l1.922-3.105l1.143,0.724L11.6,35.173l-0.528-0.335l-0.445,0.715
	l0.518,0.326l-0.279,0.448l-0.516-0.325l-0.644,1.042l0.529,0.333l-0.288,0.47L8.801,37.123z M7.092,35.863l2.233-2.889l0.668,0.527
	c0.227,0.18,0.362,0.354,0.405,0.523c0.04,0.169-0.008,0.343-0.148,0.523l-0.477,0.616c-0.174,0.225-0.349,0.341-0.529,0.354
	c-0.178,0.013-0.393-0.08-0.643-0.275L8.535,35.19l-0.871,1.123L7.092,35.863z M9.159,34.777l0.52-0.668
	c0.049-0.067,0.071-0.118,0.066-0.161c-0.006-0.035-0.041-0.085-0.108-0.135l-0.022-0.02l-0.769,0.994l0.033,0.026
	c0.06,0.049,0.111,0.068,0.151,0.063C9.068,34.87,9.112,34.837,9.159,34.777 M5.021,34.856l1.088-0.887l0.492,0.464l-1.253,0.731
	L5.021,34.856z M3.906,32.67l2.739-2.402l0.651,0.756l-0.992,1.214c-0.09,0.108-0.193,0.225-0.311,0.35
	c-0.117,0.128-0.256,0.267-0.414,0.423l0.019,0.021c0.186-0.179,0.348-0.333,0.488-0.462c0.141-0.135,0.241-0.225,0.305-0.28
	l1.132-1.001l0.373,0.433l-2.739,2.406L4.6,33.476l1.244-1.586c0.048-0.063,0.124-0.155,0.228-0.273
	c0.102-0.12,0.217-0.251,0.342-0.394L6.4,31.209c-0.108,0.109-0.203,0.202-0.285,0.283c-0.081,0.076-0.148,0.141-0.203,0.188
	l-1.628,1.428L3.906,32.67z M4.214,30.55l0.157,0.221l0.849-0.722c0.048-0.042,0.136-0.111,0.265-0.212
	c0.057-0.044,0.1-0.076,0.132-0.101l-0.015-0.021c-0.117,0.076-0.21,0.138-0.279,0.184c-0.07,0.046-0.118,0.073-0.14,0.087
	L4.214,30.55z M2.522,30.779l3.277-1.678l0.546,0.756L3.66,32.361l-0.441-0.614l0.741-0.632L3.75,30.823L2.913,31.32L2.522,30.779z
	 M0.99,28.059L4.13,26.23l0.52,0.904l-1.521,1.162c-0.117,0.093-0.285,0.213-0.498,0.357c-0.02,0.013-0.03,0.021-0.039,0.029
	l0.012,0.021c0.104-0.052,0.208-0.101,0.309-0.148c0.103-0.043,0.216-0.09,0.342-0.138l1.738-0.685l0.496,0.87l-3.143,1.828
	l-0.33-0.576l1.662-0.968c0.088-0.051,0.187-0.108,0.302-0.171c0.114-0.063,0.242-0.134,0.385-0.213l-0.007-0.019
	c-0.189,0.1-0.382,0.184-0.572,0.253c-0.008,0.003-0.013,0.005-0.013,0.007l-1.97,0.737l-0.306-0.538l1.534-1.288
	c0.051-0.043,0.127-0.101,0.233-0.178c0.103-0.073,0.228-0.158,0.368-0.256l-0.008-0.02c-0.007,0-0.032,0.015-0.073,0.039
	c-0.656,0.387-1.411,0.828-2.268,1.329L0.99,28.059z M0.542,26.94l3.289-1.548l0.308,0.665L0.85,27.603L0.542,26.94z"/>
<rect x="0.519" y="1.002" fill="none" width="41.381" height="40.114"/>
<g>
	<path fill="#231F20" d="M49.704,18.038v-5.52h2.325c0.238,0,0.458,0.05,0.661,0.151c0.202,0.101,0.376,0.233,0.521,0.396
		c0.145,0.164,0.258,0.349,0.338,0.556c0.08,0.208,0.12,0.417,0.12,0.629c0,0.203-0.03,0.396-0.089,0.58
		c-0.059,0.184-0.144,0.35-0.252,0.498c-0.109,0.148-0.239,0.272-0.389,0.374c-0.15,0.101-0.319,0.169-0.505,0.206l1.36,2.13H53.18
		L51.874,16h-1.633v2.037H49.704z M50.241,15.519h1.812c0.161,0,0.308-0.035,0.439-0.105c0.132-0.07,0.245-0.165,0.338-0.284
		c0.093-0.119,0.166-0.254,0.217-0.404c0.052-0.15,0.078-0.309,0.078-0.475c0-0.166-0.03-0.325-0.09-0.478
		c-0.06-0.153-0.14-0.287-0.241-0.4c-0.101-0.114-0.22-0.205-0.358-0.272C52.3,13.033,52.156,13,52.006,13h-1.765V15.519z"/>
	<path fill="#231F20" d="M57.044,17.587c0.347,0,0.636-0.066,0.866-0.199c0.231-0.131,0.415-0.306,0.552-0.52
		c0.137-0.216,0.233-0.461,0.288-0.735c0.055-0.274,0.082-0.552,0.082-0.832v-2.783h0.544v2.783c0,0.374-0.042,0.727-0.125,1.062
		s-0.216,0.628-0.4,0.882s-0.423,0.457-0.719,0.606c-0.295,0.151-0.655,0.226-1.081,0.226c-0.44,0-0.808-0.079-1.104-0.237
		c-0.295-0.159-0.534-0.367-0.715-0.626c-0.182-0.259-0.311-0.555-0.389-0.886c-0.078-0.333-0.117-0.674-0.117-1.027v-2.783h0.537
		v2.783c0,0.291,0.028,0.573,0.085,0.848c0.057,0.275,0.154,0.518,0.292,0.73c0.137,0.213,0.32,0.384,0.548,0.514
		C56.417,17.522,56.702,17.587,57.044,17.587z"/>
	<path fill="#231F20" d="M65.573,18.038v-4.533l-2.014,3.507H63.24l-2.021-3.507v4.533h-0.537v-5.52h0.552l2.161,3.778l2.162-3.778
		h0.552v5.52H65.573z"/>
	<path fill="#231F20" d="M66.925,18.038l2.309-5.52h0.443l2.31,5.52h-0.583l-0.716-1.726h-2.48l-0.708,1.726H66.925z M69.46,13.155
		l-1.135,2.729h2.239L69.46,13.155z"/>
	<path fill="#231F20" d="M77.141,12.518v5.52h-0.543v-2.581h-3.274v2.581h-0.536v-5.52h0.536v2.457h3.274v-2.457H77.141z"/>
	<path fill="#231F20" d="M83.766,13.552c-0.155-0.176-0.364-0.319-0.626-0.427c-0.262-0.109-0.557-0.164-0.882-0.164
		c-0.493,0-0.851,0.092-1.073,0.276s-0.334,0.434-0.334,0.75c0,0.166,0.029,0.302,0.089,0.409c0.06,0.106,0.152,0.198,0.279,0.276
		c0.128,0.078,0.287,0.145,0.481,0.202c0.194,0.057,0.425,0.114,0.688,0.171c0.296,0.062,0.561,0.13,0.794,0.206
		s0.433,0.171,0.599,0.288s0.292,0.259,0.381,0.428c0.088,0.168,0.132,0.377,0.132,0.626c0,0.254-0.049,0.474-0.147,0.661
		s-0.236,0.342-0.412,0.466c-0.176,0.125-0.387,0.217-0.63,0.276c-0.244,0.06-0.508,0.09-0.793,0.09
		c-0.866,0-1.604-0.267-2.216-0.801l0.265-0.443c0.201,0.212,0.474,0.392,0.815,0.54c0.343,0.147,0.724,0.222,1.144,0.222
		c0.44,0,0.785-0.079,1.033-0.237c0.249-0.158,0.374-0.398,0.374-0.719c0-0.171-0.034-0.315-0.105-0.432
		c-0.07-0.117-0.174-0.217-0.314-0.303c-0.14-0.085-0.315-0.159-0.524-0.222c-0.21-0.062-0.453-0.125-0.728-0.186
		c-0.29-0.068-0.544-0.138-0.762-0.21c-0.218-0.073-0.4-0.164-0.548-0.272c-0.147-0.109-0.26-0.24-0.334-0.393
		c-0.076-0.153-0.113-0.341-0.113-0.564c0-0.254,0.048-0.481,0.144-0.681c0.096-0.199,0.23-0.365,0.405-0.498
		c0.173-0.132,0.38-0.233,0.621-0.303c0.241-0.07,0.506-0.105,0.797-0.105c0.363,0,0.688,0.056,0.976,0.167
		c0.288,0.111,0.549,0.268,0.781,0.47L83.766,13.552z"/>
	<path fill="#231F20" d="M84.59,18.038l2.31-5.52h0.443l2.309,5.52h-0.583l-0.716-1.726h-2.48l-0.707,1.726H84.59z M87.125,13.155
		l-1.136,2.729h2.239L87.125,13.155z"/>
	<path fill="#231F20" d="M90.451,18.038v-5.512h0.537v3.203l3.04-3.21h0.599l-2.255,2.425l2.379,3.094h-0.599l-2.114-2.775
		l-1.05,1.081v1.695H90.451z"/>
	<path fill="#231F20" d="M95.436,18.038v-5.512h0.536v5.512H95.436z"/>
	<path fill="#231F20" d="M101.298,13h-1.967v5.038h-0.545V13h-1.967v-0.482h4.479V13z"/>
	<path fill="#231F20" d="M58.094,24.773c-0.121-0.133-0.297-0.275-0.527-0.426c-0.229-0.151-0.499-0.294-0.807-0.426
		c-0.309-0.134-0.65-0.242-1.025-0.327c-0.375-0.084-0.774-0.127-1.198-0.127c-0.798,0-1.403,0.157-1.814,0.472
		s-0.617,0.756-0.617,1.324c0,0.314,0.066,0.571,0.2,0.771c0.133,0.199,0.333,0.372,0.599,0.517c0.266,0.146,0.598,0.275,0.998,0.39
		c0.399,0.115,0.865,0.239,1.396,0.372c0.629,0.169,1.207,0.345,1.733,0.526c0.526,0.181,0.973,0.408,1.342,0.681
		c0.369,0.271,0.656,0.607,0.862,1.006c0.206,0.399,0.309,0.896,0.309,1.488c0,0.677-0.127,1.252-0.381,1.724
		c-0.253,0.472-0.596,0.855-1.025,1.151c-0.429,0.297-0.928,0.515-1.496,0.653c-0.569,0.139-1.173,0.209-1.814,0.209
		c-0.98,0-1.929-0.148-2.848-0.445c-0.919-0.296-1.748-0.729-2.485-1.297l0.943-1.742c0.158,0.158,0.381,0.334,0.671,0.527
		c0.291,0.193,0.632,0.371,1.025,0.534c0.394,0.164,0.826,0.303,1.297,0.418s0.961,0.172,1.469,0.172
		c0.774,0,1.376-0.142,1.805-0.426s0.644-0.698,0.644-1.243c0-0.326-0.079-0.599-0.236-0.816s-0.387-0.407-0.689-0.571
		c-0.303-0.163-0.672-0.309-1.107-0.436c-0.436-0.127-0.932-0.263-1.488-0.408c-0.641-0.169-1.2-0.348-1.678-0.535
		c-0.478-0.188-0.874-0.414-1.188-0.68c-0.315-0.267-0.554-0.578-0.717-0.935c-0.164-0.356-0.245-0.789-0.245-1.297
		c0-0.629,0.118-1.188,0.354-1.678c0.236-0.49,0.562-0.901,0.979-1.234c0.418-0.332,0.91-0.583,1.479-0.753
		c0.569-0.169,1.18-0.253,1.833-0.253c0.895,0,1.708,0.139,2.44,0.417c0.731,0.278,1.375,0.622,1.932,1.033L58.094,24.773z"/>
	<path fill="#231F20" d="M66.384,34.134c-0.267,0.121-0.62,0.257-1.062,0.408c-0.441,0.15-0.922,0.227-1.442,0.227
		c-0.314,0-0.608-0.042-0.879-0.127c-0.272-0.084-0.514-0.212-0.726-0.381c-0.211-0.169-0.378-0.39-0.499-0.662
		c-0.122-0.272-0.182-0.602-0.182-0.988v-5.933h-1.27v-1.542h1.27v-3.12h1.996v3.12h2.068v1.542H63.59v5.297
		c0,0.339,0.096,0.584,0.29,0.735c0.193,0.151,0.43,0.227,0.708,0.227c0.278,0,0.544-0.049,0.798-0.146
		c0.253-0.097,0.441-0.175,0.562-0.235L66.384,34.134z"/>
	<path fill="#231F20" d="M67.6,34.624v-2.321h1.651v2.321H67.6z"/>
	<path fill="#231F20" d="M75.454,28.093c0-0.773,0.139-1.545,0.417-2.313c0.279-0.768,0.681-1.457,1.207-2.067
		c0.525-0.611,1.171-1.104,1.932-1.479c0.763-0.374,1.627-0.562,2.595-0.562c1.149,0,2.137,0.261,2.966,0.78
		c0.828,0.521,1.448,1.198,1.859,2.032l-1.596,1.07c-0.17-0.387-0.382-0.713-0.636-0.979c-0.254-0.266-0.528-0.478-0.825-0.635
		s-0.602-0.27-0.916-0.336c-0.315-0.066-0.623-0.1-0.926-0.1c-0.652,0-1.23,0.136-1.731,0.408c-0.503,0.272-0.923,0.632-1.262,1.079
		c-0.338,0.447-0.592,0.95-0.762,1.506c-0.17,0.557-0.254,1.113-0.254,1.669c0,0.629,0.1,1.229,0.299,1.796
		c0.2,0.569,0.48,1.07,0.845,1.506c0.362,0.436,0.791,0.783,1.287,1.043c0.496,0.261,1.04,0.391,1.633,0.391
		c0.302,0,0.62-0.039,0.953-0.118c0.332-0.079,0.646-0.206,0.942-0.381c0.297-0.176,0.572-0.396,0.826-0.662
		c0.254-0.267,0.466-0.587,0.635-0.962l1.688,0.962c-0.207,0.483-0.493,0.909-0.862,1.278s-0.783,0.681-1.242,0.935
		c-0.46,0.254-0.95,0.447-1.471,0.581c-0.519,0.132-1.033,0.199-1.541,0.199c-0.896,0-1.711-0.193-2.449-0.581
		c-0.738-0.387-1.376-0.891-1.914-1.515c-0.538-0.622-0.955-1.33-1.252-2.122C75.603,29.723,75.454,28.916,75.454,28.093z"/>
	<path fill="#231F20" d="M90.802,34.806c-0.46,0-0.886-0.076-1.278-0.228c-0.394-0.151-0.732-0.359-1.017-0.626
		c-0.283-0.266-0.508-0.58-0.672-0.943c-0.162-0.363-0.243-0.756-0.243-1.179c0-0.447,0.096-0.854,0.289-1.216
		s0.469-0.678,0.826-0.943c0.356-0.266,0.779-0.472,1.27-0.617c0.49-0.145,1.03-0.218,1.624-0.218c0.447,0,0.889,0.04,1.324,0.118
		c0.435,0.079,0.828,0.185,1.179,0.317V28.62c0-0.702-0.199-1.249-0.599-1.643c-0.399-0.393-0.974-0.589-1.724-0.589
		c-0.508,0-1.007,0.094-1.496,0.281c-0.49,0.188-0.995,0.457-1.516,0.807l-0.616-1.27c1.222-0.822,2.491-1.233,3.81-1.233
		c1.306,0,2.322,0.333,3.048,0.998s1.089,1.62,1.089,2.865v3.43c0,0.229,0.042,0.393,0.126,0.489
		c0.085,0.097,0.229,0.151,0.437,0.163v1.705c-0.194,0.036-0.373,0.061-0.535,0.073c-0.163,0.012-0.312,0.018-0.445,0.018
		c-0.388-0.024-0.68-0.126-0.879-0.308c-0.2-0.182-0.324-0.424-0.373-0.726l-0.054-0.6c-0.424,0.557-0.946,0.983-1.569,1.279
		S91.516,34.806,90.802,34.806z M91.347,33.335c0.483,0,0.94-0.087,1.369-0.263c0.43-0.176,0.765-0.42,1.007-0.734
		c0.254-0.218,0.381-0.447,0.381-0.689v-1.252c-0.339-0.133-0.698-0.236-1.079-0.309c-0.382-0.072-0.753-0.108-1.116-0.108
		c-0.714,0-1.297,0.153-1.75,0.463c-0.454,0.308-0.681,0.717-0.681,1.224c0,0.473,0.175,0.868,0.526,1.188
		C90.354,33.176,90.802,33.335,91.347,33.335z"/>
	<path fill="#231F20" d="M103.863,26.86c-0.774,0.024-1.458,0.202-2.051,0.535c-0.592,0.332-1.022,0.808-1.287,1.424v5.805H98.53
		v-9.487h1.849v2.122c0.34-0.652,0.771-1.186,1.298-1.596c0.525-0.411,1.086-0.617,1.678-0.617c0.122,0,0.221,0,0.3,0
		s0.147,0.007,0.209,0.019V26.86z"/>
	<path fill="#231F20" d="M109.287,34.806c-0.75,0-1.425-0.134-2.022-0.399c-0.599-0.267-1.109-0.623-1.533-1.071
		c-0.423-0.447-0.75-0.97-0.979-1.568c-0.23-0.599-0.345-1.225-0.345-1.878s0.114-1.279,0.345-1.877
		c0.229-0.6,0.56-1.122,0.989-1.57c0.429-0.446,0.943-0.804,1.541-1.07c0.599-0.266,1.267-0.398,2.005-0.398
		s1.406,0.133,2.004,0.398c0.6,0.267,1.113,0.624,1.543,1.07c0.429,0.448,0.759,0.971,0.988,1.57
		c0.229,0.598,0.346,1.224,0.346,1.877s-0.116,1.279-0.346,1.878s-0.56,1.121-0.988,1.568c-0.43,0.448-0.943,0.805-1.543,1.071
		C110.693,34.672,110.025,34.806,109.287,34.806z M106.457,29.907c0,0.46,0.072,0.884,0.218,1.271s0.345,0.723,0.599,1.007
		s0.554,0.508,0.898,0.671s0.716,0.245,1.115,0.245c0.398,0,0.771-0.082,1.115-0.245c0.346-0.163,0.645-0.39,0.898-0.681
		c0.254-0.29,0.453-0.628,0.599-1.015c0.146-0.388,0.218-0.811,0.218-1.271c0-0.447-0.072-0.868-0.218-1.261
		s-0.345-0.735-0.599-1.025s-0.553-0.517-0.898-0.68c-0.344-0.164-0.717-0.245-1.115-0.245c-0.387,0-0.753,0.084-1.098,0.254
		c-0.344,0.17-0.644,0.399-0.897,0.689c-0.255,0.29-0.457,0.632-0.607,1.025C106.532,29.04,106.457,29.46,106.457,29.907z"/>
	<path fill="#231F20" d="M115.909,21.381h1.995v10.45c0,0.351,0.091,0.625,0.272,0.825c0.181,0.199,0.435,0.3,0.762,0.3
		c0.133,0,0.29-0.021,0.472-0.064c0.182-0.042,0.351-0.1,0.508-0.172l0.29,1.614c-0.29,0.134-0.635,0.239-1.033,0.317
		c-0.4,0.079-0.757,0.118-1.071,0.118c-0.689,0-1.227-0.188-1.614-0.562c-0.387-0.375-0.58-0.907-0.58-1.596V21.381z"/>
	<path fill="#231F20" d="M124.217,34.806c-0.979,0-1.723-0.324-2.23-0.972c-0.509-0.646-0.763-1.611-0.763-2.893v-5.806h1.996v5.406
		c0,1.705,0.599,2.558,1.796,2.558c0.58,0,1.125-0.176,1.633-0.526s0.9-0.858,1.179-1.523v-5.914h1.996v7.13
		c0,0.229,0.042,0.393,0.127,0.489c0.084,0.097,0.235,0.151,0.453,0.163v1.705c-0.218,0.036-0.405,0.061-0.562,0.073
		c-0.157,0.012-0.296,0.018-0.417,0.018c-0.75-0.061-1.174-0.404-1.27-1.033l-0.037-0.98c-0.423,0.689-0.974,1.213-1.65,1.569
		C125.789,34.626,125.04,34.806,124.217,34.806z"/>
	<path fill="#231F20" d="M135.954,34.806c-0.387,0-0.776-0.031-1.169-0.092c-0.395-0.061-0.781-0.147-1.161-0.263
		c-0.382-0.114-0.744-0.254-1.089-0.417s-0.65-0.348-0.916-0.554l0.834-1.342c1.161,0.81,2.315,1.215,3.466,1.215
		c0.604,0,1.082-0.114,1.433-0.345c0.351-0.229,0.526-0.557,0.526-0.979c0-0.398-0.196-0.692-0.59-0.88s-1.02-0.384-1.878-0.59
		c-0.593-0.145-1.1-0.293-1.523-0.444s-0.769-0.32-1.034-0.508c-0.267-0.188-0.46-0.411-0.58-0.671
		c-0.122-0.26-0.183-0.572-0.183-0.935c0-0.483,0.098-0.913,0.291-1.288s0.456-0.692,0.789-0.952c0.332-0.26,0.727-0.456,1.18-0.59
		c0.453-0.133,0.939-0.199,1.46-0.199c0.689,0,1.354,0.108,1.995,0.326s1.216,0.515,1.724,0.89l-0.853,1.215
		c-0.907-0.677-1.874-1.016-2.903-1.016c-0.508,0-0.937,0.105-1.287,0.317c-0.352,0.212-0.526,0.547-0.526,1.007
		c0,0.193,0.036,0.356,0.109,0.49c0.071,0.133,0.19,0.248,0.354,0.344c0.162,0.097,0.377,0.185,0.644,0.264
		c0.267,0.078,0.593,0.166,0.979,0.263c0.653,0.157,1.216,0.314,1.688,0.472c0.473,0.157,0.862,0.342,1.17,0.554
		c0.309,0.211,0.535,0.459,0.68,0.743c0.146,0.284,0.218,0.626,0.218,1.025c0,0.447-0.09,0.853-0.271,1.215
		c-0.182,0.363-0.438,0.671-0.771,0.926c-0.334,0.254-0.738,0.45-1.217,0.589C137.063,34.736,136.535,34.806,135.954,34.806z"/>
</g>
</svg>
