<svg xmlns="http://www.w3.org/2000/svg" width="48" height="48" viewBox="0 0 48 48"><path fill="#FFF" d="M42.334 33.89c-3.013-5.713-6.022-4.802-9.328-5.11.31.91.31 1.807.31 3.012 4.802 1.204 6.006 6.918 6.006 10.225v3.01h-6.006v-3.01h2.996s0-7.52-4.512-7.52c-4.51 0-4.51 7.227-4.51 7.52h3.013v3.01H24.28v-3.01c0-3.307 1.205-9.33 6.023-10.225 0-1.81-.31-3.306-.603-3.908-.604-.31-1.203-.91-1.203-1.807 0-1.81 2.41-1.206 4.215-4.51 0 0 2.702-6.918 1.79-12.946h-2.996c0-.595.294-.905.294-1.492 0-.602 0-.912-.294-1.512h2.396C33.006 2.604 29.994-.1 24.278-.1c-5.712 0-8.725 2.704-9.93 6.023h2.41c0 .604-.293.897-.293 1.5s0 .893.293 1.493h-3.01c-.605 6.028 1.805 12.947 1.805 12.947 1.81 3.01 4.218 2.405 4.218 4.508 0 1.515-1.498 2.117-3.305 2.41-.602.604-1.206 1.808-1.206 4.217v3.614c1.808.602 3.012 2.395 3.012 4.202 0 2.115-2.115 4.215-4.524 4.215s-4.51-2.1-4.51-4.51c0-2.114 1.204-3.612 3.013-4.216v-3.613c0-1.498.294-2.703.6-3.907-2.1.31-4.508 1.204-6.623 5.112C4.42 37.21 3.524 48.037 3.524 48.037h41.22c.293 0-.604-10.827-2.41-14.146zM20.086 7.53c0-2.25 1.824-4.075 4.075-4.075 2.25 0 4.075 1.824 4.075 4.075s-1.825 4.075-4.074 4.075c-2.25 0-4.074-1.824-4.074-4.075z"/></svg>