<svg xmlns="http://www.w3.org/2000/svg" width="140" height="40.75" viewBox="0 0 140 40.75"><g fill-rule="evenodd" clip-rule="evenodd"><g fill="#FFF"><path d="M8.302 15.71c1 .468 1.443.87 2.108 1.83.524.755 1.037 1.49 1.865 1.726-.43.792-.264 1.646-.1 2.536.22 1.142.186 1.753-.2 2.802 1.027-.353 1.648-.398 2.76-.195.895.158 1.764.317 2.557-.134.232.853.966 1.36 1.725 1.883.95.662 1.35 1.112 1.82 2.118.474-.98.89-1.438 1.81-2.098.75-.528 1.48-1.048 1.72-1.914.78.434 1.63.264 2.518.093 1.135-.22 1.734-.182 2.775.205-.35-1.04-.398-1.666-.19-2.79.16-.885.316-1.754-.142-2.57.868-.25 1.36-.98 1.875-1.74.647-.967 1.098-1.37 2.104-1.847-.975-.48-1.426-.896-2.08-1.825-.534-.756-1.053-1.5-1.918-1.74.44-.794.28-1.68.12-2.587-.203-1.122-.177-1.75.166-2.778-1.038.39-1.638.427-2.773.216-.89-.163-1.75-.322-2.52.12-.202-.706-.717-1.17-1.3-1.6l3.934-.013-.013-3.14-4.616.015-.01-2.408-3.108.012.01 2.407-4.613.016.01 3.142 3.965-.014c-.597.433-1.126.9-1.328 1.63-.8-.458-1.665-.293-2.558-.122-1.112.21-1.73.168-2.76-.173.392 1.047.437 1.652.225 2.8-.168.882-.328 1.745.116 2.54-.86.25-1.368.994-1.89 1.75-.65.94-1.102 1.357-2.064 1.844zm2.606-1.45c.864-1.27 1.252-1.544 2.674-1.573-.944-1.033-1.07-1.504-.798-2.99.12-.626.24-1.28.14-1.94.64.086 1.26-.036 1.87-.153 1.484-.275 1.96-.158 3.002.802.035-1.357.265-1.794 1.39-2.597l.056 11.436 3.13-.01-.027-11.457c1.116.79 1.36 1.234 1.405 2.603 1.013-.99 1.464-1.096 2.95-.82.636.117 1.283.234 1.923.136-.075.63.04 1.264.15 1.883.283 1.55.162 2.01-.842 3.062 1.46-.006 1.85.247 2.758 1.542.363.507.727 1.033 1.218 1.416-.524.395-.893.944-1.25 1.477-.853 1.26-1.243 1.52-2.65 1.54.94 1.057 1.083 1.544.81 3.034-.11.616-.225 1.25-.135 1.905-.652-.1-1.29.023-1.923.144-1.483.288-1.94.167-2.965-.798-.017 1.44-.276 1.844-1.527 2.73-.51.36-1.038.732-1.416 1.238-.39-.52-.932-.898-1.458-1.267-1.28-.88-1.52-1.273-1.517-2.72-1.046 1-1.51 1.13-3.023.868-.617-.113-1.242-.226-1.876-.14.096-.658-.027-1.31-.148-1.94-.29-1.517-.152-1.97.81-3.018-1.438.017-1.804-.24-2.688-1.51-.37-.53-.752-1.077-1.26-1.46.498-.39.863-.918 1.218-1.428z"/><path d="M5.51 17.87c-.538-.288-.635-.612-1.07-1.02.335 2.062.497 2.617 1.56 4.38-.48-.177-.96-.5-1.442-.87.596 1.38 1.29 2.533 2.092 3.783l-1.333-.867c.52 1.398 1.09 1.896 2.24 2.793l-1.433-.397c.66.97 1.528 1.59 3.15 2.505l-2.13-.58c.826.9 2.193 1.773 3.204 2.03l-1.708.01c.772.513 2 .98 3.15 1.214l-1.276.184c1.67.91 3.984 1.73 5.485.135.364-.394.782-.478 1.128-.433.79.11-.193 2.018 1.96 1.742.61-.078 1.152-.706 1.34-1.363.18-.646.142-1.565-.59-1.698-1.23-.223-.96 1.295-1.687 1.21-.196-.026-.306-.466-.337-1.205-.036-1.365-.737-1.25-1.88-1.684-4.49-1.72-7.2-3.957-8.765-8.382-1-2.83-.816-5.676 0-8.32.648-2.08 1.73-3.69 3.094-5.4-1.372.752-2.14 1.84-2.868 3.08l-.162-1.61c-.468 1.135-.7 2.425-.838 3.616-.116-.083-.532-.498-.7-1.005-.1 1.53-.225 2.694-.09 4.32l-.92-1.92.336 2.974-.698-1.05c.204 1.6.704 2.285 1.188 3.826zm9.174 10.05c1.686.59 1.742 1.59-.347.652-1.98-.894-4.216-2.723-5.335-4.437 2.067 1.806 3.57 3.058 5.682 3.786zM25.72 31.134c1.5 1.586 3.81.75 5.477-.175l-1.282-.175c1.148-.24 2.373-.718 3.14-1.237l-1.706.007c1.002-.266 2.372-1.147 3.187-2.056l-2.125.595c1.613-.926 2.478-1.553 3.13-2.527l-1.432.406c1.147-.906 1.717-1.406 2.226-2.81l-1.33.877c.795-1.255 1.476-2.413 2.07-3.795-.483.37-.96.698-1.436.877 1.047-1.77 1.2-2.325 1.525-4.39-.433.412-.532.736-1.066 1.027.476-1.546.967-2.233 1.162-3.833l-.69 1.053.31-2.978-.9 1.928c.116-1.626-.008-2.79-.12-4.32-.165.508-.582.927-.694 1.01-.144-1.19-.39-2.478-.863-3.61l-.15 1.61c-.74-1.235-1.52-2.315-2.888-3.06 1.368 1.7 2.467 3.304 3.123 5.377.837 2.64 1.054 5.484.068 8.32-1.535 4.44-4.232 6.694-8.71 8.45-1.13.44-1.84.33-1.86 1.696-.03.737-.137 1.178-.332 1.208-.726.09-.465-1.43-1.69-1.2-.736.138-.767 1.06-.59 1.704.192.655.74 1.28 1.36 1.352 2.145.26 1.153-1.643 1.94-1.756.34-.05.764.033 1.143.424zm1.288-3.257c2.095-.743 3.594-2.007 5.658-3.826-1.112 1.723-3.337 3.567-5.316 4.475-2.074.953-2.03-.047-.342-.648z"/><path d="M26.265 10.9c-.06 1.443-.542 3.596-1.186 4.928-.31-1.277-1.457-.706-1.44.23.026 1.33.032 1.6-.112 2.227-.145.65-.864.943-2.055 1.423l.013 3.398c4.004-1.943 6.485-6.233 4.78-12.207zm-2.234 7.728c.218-.52.177-1.167.162-2.163-.012-.695.34-.922.444-.18.145.972.595.625.873-.054.375-.92.706-1.995.782-2.978.21 1.42-.127 3.596-.8 5.075-.775 1.716-1.836 2.72-3.315 3.673l-.007-1.905c1.334-.658 1.676-1.01 1.86-1.467zM20.167 23.112l-.012-3.397c-1.192-.472-1.91-.76-2.07-1.41-.146-.626-.14-.896-.123-2.224.005-.936-1.138-1.5-1.44-.22-.655-1.328-1.16-3.477-1.216-4.92-1.67 5.985.843 10.257 4.86 12.172zm-4.876-9.82c.08.985.425 2.055.806 2.974.286.677.738 1.02.875.048.097-.742.455-.517.445.177-.01.997-.046 1.644.175 2.163.188.455.534.803 1.87 1.454l.008 1.904c-1.478-.94-2.553-1.937-3.343-3.648-.683-1.476-1.034-3.65-.834-5.07zM16.08 39.506l.662.12.258-.96.355.06-.096.986.746.128.198-3.706-.925-.168-1.2 3.54zm1.412-2.62c.023-.083.044-.193.074-.33h.032l-.03.168c-.026.166-.038.284-.044.346l-.113 1.118-.267-.042.313-1.098.036-.16zM13.452 36.753l-.2.525.17.07-.232.613c-.02.053-.046.097-.07.11-.03.022-.067.025-.108.007-.04-.016-.06-.036-.07-.064-.01-.04 0-.087.018-.147l.85-2.25c.024-.058.048-.098.07-.12.033-.018.067-.02.108-.005.04.02.07.043.074.075.01.028 0 .075-.02.14l-.23.61.677.257.194-.51c.1-.255.1-.472.015-.645-.086-.175-.258-.316-.523-.415-.29-.115-.524-.125-.696-.043-.17.093-.32.304-.44.625l-.685 1.82c-.114.3-.146.543-.09.734.04.188.17.323.388.407.11.046.233.062.34.045.117-.017.236-.053.35-.124l-.034.234.335.13.66-1.756-.853-.323zM9.34 34.23l.473-.622c.145-.185.19-.36.147-.523-.042-.175-.177-.35-.41-.53l-.67-.53-2.244 2.92.578.452.877-1.14.066.052c.25.2.467.296.646.278.182-.012.357-.13.538-.358zm-.756-.29c-.038.01-.09-.01-.15-.062l-.032-.025.774-1.004.02.02c.063.047.102.098.107.134.004.045-.018.096-.065.164l-.523.672c-.05.062-.093.098-.13.1zM9.924 35.068l.516.332.283-.454-.53-.323.45-.728.534.336.267-.432-1.156-.728-1.926 3.136 1.16.73.288-.478-.537-.337M37.21 26.612l3.166 1.835.368-.636-3.178-1.838M15.91 35.653l-.343 1.324-.222-.058.348-1.32-.71-.188-.93 3.562.71.192.445-1.73.22.06-.444 1.728.702.184.937-3.57M12.77 34.487l-.68 1.364c-.034.075-.1.206-.182.38-.076.176-.172.378-.284.625l-.02-.017c.088-.205.167-.39.23-.552.06-.163.114-.31.155-.448l.465-1.51-.89-.46-1.65 3.302.518.265.983-1.964c.028-.066.07-.15.115-.258.046-.104.102-.23.16-.37l.016.014c-.06.174-.12.34-.168.492-.05.15-.084.266-.11.35l-.56 1.958.76.387 1.652-3.296-.51-.26zM5.31 28.136l-3.3 1.703.395.534.84-.5.215.294-.744.64.45.622 2.696-2.537-.552-.757zm-.317.74c-.123.104-.22.172-.265.215l-.854.73-.16-.222.973-.575c.024-.017.07-.038.143-.083.07-.05.162-.108.278-.188l.017.02c-.03.033-.08.06-.132.104zM3.312 24.402L0 25.97l.312.67 3.31-1.568M4.542 33.938l.33.308 1.263-.74-.495-.465M38.046 24.935l1.225.576-.094.206-1.234-.57-.3.665 3.316 1.547.307-.67-1.607-.738.098-.215 1.604.744.31-.67-3.322-1.546M5.362 30.94l-1.247 1.61.568.648 2.747-2.434-.375-.433-1.14 1.014c-.06.055-.157.153-.305.282-.14.133-.3.284-.49.476l-.023-.023c.16-.17.3-.308.42-.44.118-.123.223-.24.314-.342l.995-1.23-.663-.76-2.75 2.427.384.444 1.638-1.448c.052-.043.118-.11.202-.19.082-.077.173-.18.28-.288l.017.016c-.122.144-.24.28-.34.395-.106.12-.18.21-.23.276zM30.435 33.63l1.458 3.44.564-.357-.438-.884.302-.196.58.8.646-.41-2.32-2.895-.793.5zm1.57 1.564l-.224.143-.503-1.02c-.01-.024-.036-.072-.076-.147-.038-.074-.094-.174-.16-.294l.023-.016c.022.026.05.08.087.14.09.14.152.233.192.288l.664.906zM30.317 34.748c-.145-.296-.314-.475-.492-.533-.168-.058-.4-.023-.673.12l-.762.393 1.673 3.284.717-.368c.285-.15.462-.318.525-.506.057-.182.01-.428-.134-.725l-.853-1.665zm.193 2.448l-.037.017-1.207-2.378c.088-.042.154-.063.192-.05.046.01.082.058.125.13l1.016 2c.032.066.042.117.033.166-.018.04-.06.08-.123.116zM32.64 32.034l.95 1.202.258.316c.127.15.27.323.442.524l-.02.015c-.15-.16-.28-.31-.402-.435-.124-.125-.23-.237-.33-.332l-1.168-1.07-.786.62 2.263 2.9.456-.357-1.345-1.73c-.05-.05-.106-.124-.18-.21-.077-.096-.164-.198-.265-.308l.017-.01c.13.135.253.254.373.37l.256.244 1.527 1.34.667-.534-2.255-2.905-.46.36zM24.37 35.992l.27 3.734.65-.154-.136-.983.36-.082.28.94.746-.178-1.26-3.492-.91.214zm.718 2.054l-.145-1.126c-.004-.025-.006-.086-.02-.173-.017-.077-.04-.193-.064-.33l.027-.01c.01.043.02.096.04.166.042.162.073.273.088.338l.334 1.077-.262.06zM27.053 35.236l.48 1.45c.028.084.072.218.14.4.066.183.14.393.236.635l-.03.01c-.08-.203-.156-.39-.224-.548-.072-.16-.136-.3-.2-.436l-.73-1.397-.95.312 1.14 3.507.55-.18-.68-2.083c-.024-.073-.05-.166-.093-.27-.043-.11-.087-.237-.147-.378l.02-.007.22.476c.074.14.128.252.168.314l.974 1.794.82-.276-1.147-3.504-.547.178zM35.038 29.73l-.484.512.915 1.394-.012.003-1.16-1.122-.51.527 2.64 2.555.505-.533-1.357-1.313v-.01l1.602 1.067.503-.525-1.858-1.17M4.494 26.756l-1.754.696c-.127.048-.243.1-.347.145-.102.044-.2.096-.307.15l-.008-.03s.012-.017.03-.023c.22-.145.384-.27.503-.36l1.533-1.18-.527-.912L.45 27.1l.3.517 2.285-1.35.07-.042.01.025c-.143.098-.265.187-.372.253-.104.08-.183.14-.234.184L.97 27.99l.31.542 1.985-.758.014-.007c.187-.065.38-.15.575-.247l.004.016c-.147.08-.27.15-.385.22-.114.06-.218.118-.305.167l-1.674.985.333.578 3.165-1.856-.5-.874zM35.335 29.345l2.487 2.774.418-.527-.7-.688.222-.286.808.56.48-.598-3.13-1.973-.585.735zm.668.012c.03.02.076.057.13.1.128.1.218.17.272.205l.917.65-.166.21-.805-.808c-.01-.02-.05-.05-.114-.114-.065-.056-.15-.126-.254-.222l.02-.02zM39.607 28.474l-.36-.237c-.145-.09-.264-.146-.343-.166-.08-.022-.168-.022-.27 0l-1.022.17c-.05.003-.094.003-.136-.004-.045-.01-.085-.032-.135-.063L37.066 28c-.044-.033-.078-.072-.094-.1-.007-.03-.003-.066.02-.107.03-.04.052-.06.085-.06.03-.004.073.016.13.055l.545.356.395-.617-.502-.328c-.204-.134-.396-.17-.587-.117-.188.053-.358.195-.505.423-.145.228-.203.443-.18.644.032.19.138.36.34.49l.277.178.044.023c.108.077.202.114.283.134.08.02.174.02.273 0l.987-.146c.065-.012.127-.012.174 0 .05.007.095.03.14.054l.324.22c.06.02.09.06.106.088.006.03 0 .072-.02.11-.025.033-.058.054-.088.054-.034.005-.076-.013-.13-.05l-.62-.404-.393.613.576.376c.217.145.417.192.612.14.183-.048.35-.192.505-.43.15-.235.21-.447.183-.64-.022-.194-.14-.356-.333-.486zM19.472 36.283l-.857-.057-.235 3.685.726.05.106-1.712.013.01c.083.006.14.034.172.087.03.06.05.138.046.236l-.055.803-.013.135c-.006.092-.006.176 0 .25.015.075.028.152.044.215l.72.05c-.018-.072-.033-.145-.038-.218-.008-.07-.008-.156 0-.223l.06-.938c.015-.225-.015-.38-.095-.48-.077-.094-.213-.153-.423-.186v-.016c.186 0 .33-.044.43-.14.1-.095.16-.24.17-.433l.025-.394c.014-.234-.04-.405-.174-.524-.12-.105-.333-.183-.624-.2zm.033 1.275c-.003.075-.02.127-.055.163-.035.028-.09.042-.167.032h-.038l.074-1.006c.09.002.156.02.184.053.03.027.042.09.038.17l-.037.588zM20.93 36.343l-.508 3.708.668-.014.072-.99h.365l.092.98.76-.016-.52-3.68-.93.013zm.278 2.165l.092-1.135c.01-.03.01-.08.013-.168.004-.086.007-.193.01-.336h.025c0 .037.01.09.01.163.004.17.008.28.015.342l.104 1.124-.27.008zM23.808 36.23c-.147-.09-.368-.11-.657-.08l-.847.115.463 3.66.72-.093-.18-1.43.09-.007c.32-.04.532-.133.65-.27.12-.135.16-.35.125-.634l-.098-.777c-.03-.232-.112-.39-.264-.482zm-.37 1.596c-.024.03-.076.05-.147.06l-.04.012-.162-1.265.03-.005c.08-.008.14 0 .172.023.037.025.06.08.066.163l.108.853c.006.07-.002.132-.027.16zM48.16 16.284l-.007-2.047 1.645-.005 1.328 2.042.614-.002-1.38-2.138c.19-.04.362-.108.512-.213.146-.098.284-.226.388-.373.11-.15.197-.318.256-.505.062-.183.09-.377.09-.583-.002-.216-.048-.425-.12-.635-.088-.21-.202-.392-.35-.563-.147-.162-.322-.292-.526-.39-.2-.104-.426-.158-.666-.158l-2.345.01.02 5.56h.54zm1.76-5.085c.152 0 .296.037.433.104.14.067.265.158.368.27.102.118.182.252.242.403.062.155.087.318.09.484 0 .168-.02.327-.073.482-.055.15-.128.286-.22.405-.094.124-.206.22-.34.29-.13.07-.28.102-.443.102l-1.824.005-.01-2.54 1.776-.006zM52.795 14.548c.076.33.21.63.395.893.186.258.423.472.722.63.3.157.673.23 1.118.23.43-.002.79-.075 1.087-.23.293-.152.537-.356.723-.61.182-.26.313-.557.395-.896.084-.337.126-.69.125-1.072l-.01-2.806-.55.002.01 2.805c.002.282-.022.568-.077.838-.057.282-.15.53-.285.748-.14.22-.327.393-.556.525-.236.136-.525.206-.875.206-.346 0-.63-.065-.865-.196-.23-.13-.416-.304-.552-.514-.14-.213-.23-.46-.293-.737-.063-.277-.087-.56-.088-.857l-.01-2.805-.546.002.01 2.806c0 .36.04.704.12 1.04zM59.225 16.243l-.016-4.57 2.05 3.536.323-.002 2.017-3.55.016 4.57h.54l-.018-5.564h-.56l-2.163 3.818-2.194-3.8h-.555l.02 5.563M67.287 10.65l-2.306 5.572.58-.002.71-1.74 2.497-.01.732 1.735.585-.002-2.352-5.554h-.446zm-.907 3.406l1.135-2.758 1.125 2.75-2.26.008zM74.718 13.59l.01 2.597h.554l-.02-5.564h-.555l.01 2.478-3.294.013-.01-2.476-.54.002.02 5.562.542-.002-.01-2.6M80.496 15.73c-.418.002-.807-.067-1.152-.22-.344-.147-.616-.32-.82-.54l-.267.45c.618.54 1.36.802 2.232.8.29-.002.555-.034.803-.09.246-.064.453-.157.63-.284.18-.13.318-.288.418-.475.096-.187.144-.408.143-.663 0-.25-.042-.463-.133-.63-.086-.175-.216-.316-.39-.43-.162-.12-.364-.214-.603-.29-.236-.074-.502-.145-.796-.207-.266-.054-.5-.108-.696-.167-.194-.055-.36-.12-.49-.196-.125-.083-.218-.178-.28-.28-.062-.112-.09-.246-.09-.414-.002-.32.11-.568.33-.763.226-.184.59-.275 1.084-.277.328 0 .626.057.892.16.266.11.474.25.633.434l.257-.446c-.24-.2-.503-.355-.792-.468-.287-.115-.613-.164-.98-.163-.295 0-.562.032-.805.105-.242.072-.453.18-.626.312-.174.132-.307.295-.406.5-.098.2-.14.43-.14.688 0 .222.04.417.108.567.083.15.194.28.346.39.147.112.333.206.554.277.216.07.475.136.766.203.276.062.52.124.734.19.213.063.392.134.53.218.14.09.246.19.315.31.072.114.11.264.11.435.002.322-.123.564-.375.724-.248.16-.594.24-1.042.24zM84.08 14.416l2.496-.01.727 1.736.59-.002-2.35-5.555-.45.002-2.303 5.57h.578l.712-1.74zm1.243-3.183l1.124 2.75-2.258.008 1.133-2.757zM89.24 16.135l-.007-1.7 1.057-1.098 2.144 2.787.598-.002-2.41-3.106 2.266-2.456-.6.002-3.058 3.248-.01-3.225-.543.002.02 5.55M94.24 10.568l.02 5.55h-.535l-.02-5.548zM97.097 16.107l.552-.002-.018-5.08 1.982-.006-.002-.484-4.513.015v.485l1.98-.007M56.398 26.824c-.372-.267-.825-.497-1.354-.677-.53-.184-1.117-.356-1.755-.525-.535-.132-1.002-.253-1.407-.377-.404-.108-.735-.237-1.006-.38-.27-.153-.47-.323-.606-.53-.138-.194-.202-.452-.204-.77 0-.575.203-1.02.62-1.338.415-.32 1.02-.476 1.826-.478.426-.002.826.04 1.21.122.377.077.72.192 1.03.326.313.133.586.274.816.42.228.16.412.296.53.436l.928-1.69c-.565-.41-1.213-.762-1.955-1.037-.734-.275-1.552-.415-2.462-.413-.657.003-1.268.092-1.838.265-.577.167-1.072.428-1.49.766-.422.336-.752.75-.984 1.244-.235.495-.357 1.06-.354 1.69 0 .512.09.952.258 1.308.165.365.404.678.727.942.31.265.714.497 1.2.682.48.186 1.04.365 1.688.535.564.144 1.064.276 1.5.4.442.132.812.276 1.118.435.308.166.538.36.698.58.162.215.24.492.242.817.002.55-.214.97-.645 1.256-.433.286-1.035.433-1.817.436-.516 0-1.01-.053-1.485-.172-.473-.107-.91-.25-1.31-.414-.39-.157-.74-.342-1.035-.53-.29-.194-.52-.374-.677-.53l-.948 1.76c.747.57 1.585 1.003 2.517 1.298.923.293 1.882.44 2.87.438.648-.002 1.258-.075 1.83-.213.57-.147 1.073-.366 1.505-.67.428-.3.773-.686 1.03-1.166.254-.474.38-1.053.378-1.74-.002-.59-.112-1.094-.315-1.495-.21-.402-.502-.742-.872-1.016zM63.484 31.104c-.26.1-.528.15-.807.15-.28 0-.518-.072-.713-.228-.194-.15-.297-.396-.298-.737l-.02-5.345 2.087-.01-.005-1.55-2.088.007-.01-3.143-2.01.007.01 3.143-1.28.004.004 1.552 1.283-.006.02 5.985c.002.388.066.72.19.99.12.282.287.5.5.67.218.172.46.305.737.383.272.085.57.126.887.126.522-.002 1.01-.078 1.453-.23.445-.16.8-.297 1.07-.422l-.445-1.584c-.125.06-.31.142-.564.236zM65.72 32.95l-.008-2.344 1.665-.005.008 2.346zM82.548 29.978c-.245.27-.526.493-.825.668-.294.18-.615.31-.95.385-.334.085-.654.132-.957.132-.6.002-1.15-.127-1.646-.392-.503-.26-.938-.608-1.305-1.046-.364-.436-.65-.945-.854-1.517-.204-.575-.307-1.178-.31-1.81-.002-.558.084-1.12.246-1.683.173-.56.425-1.065.768-1.522.34-.454.766-.812 1.27-1.087.504-.28 1.083-.414 1.743-.417.303 0 .614.03.93.093.322.067.63.18.926.334.303.16.583.368.837.636.257.273.472.6.64.987l1.608-1.082c-.42-.844-1.046-1.524-1.885-2.04-.832-.526-1.835-.788-2.99-.784-.976.005-1.846.206-2.613.577-.763.384-1.414.883-1.942 1.504-.525.618-.93 1.313-1.208 2.093-.278.77-.412 1.553-.41 2.33.004.83.154 1.64.454 2.44.302.796.725 1.508 1.27 2.133.545.63 1.19 1.134 1.934 1.52.748.387 1.568.577 2.472.573.515-.002 1.03-.067 1.554-.21.526-.13 1.018-.33 1.48-.586.465-.255.878-.574 1.242-.946.372-.37.665-.804.873-1.29l-1.704-.964c-.175.38-.384.706-.648.974zM94.576 30.957c-.086-.095-.134-.258-.134-.49l-.013-3.458c-.006-1.26-.37-2.218-1.11-2.89-.73-.664-1.758-.997-3.073-.992-1.33.003-2.605.425-3.84 1.25l.63 1.28c.522-.35 1.033-.623 1.522-.814.493-.193.997-.285 1.51-.287.754-.003 1.336.188 1.74.59.4.39.604.945.607 1.65v.65c-.35-.125-.747-.23-1.185-.312-.446-.073-.89-.112-1.334-.11-.6.002-1.15.077-1.638.22-.497.154-.92.36-1.277.628-.36.27-.637.586-.83.952-.196.373-.29.78-.29 1.23.002.426.085.825.246 1.19.168.364.395.682.686.945.284.272.63.477 1.02.628.402.15.833.227 1.298.226.72-.003 1.394-.157 2.014-.455.63-.303 1.157-.733 1.582-1.3l.056.608c.05.3.173.543.38.725.198.186.498.288.888.31.13 0 .28-.007.45-.016.16-.018.335-.04.534-.073l-.006-1.727c-.204-.005-.353-.056-.436-.16zm-2.53-.41c-.24.316-.58.567-1.01.744-.432.18-.895.266-1.38.268-.547.002-1-.16-1.358-.475-.352-.33-.53-.72-.532-1.195-.002-.516.225-.927.682-1.24.456-.313 1.042-.47 1.764-.473.367 0 .735.032 1.123.107.39.07.744.172 1.09.306l.005 1.258c0 .25-.13.476-.384.7zM102.038 23.156h-.307c-.597.004-1.154.216-1.686.632-.533.413-.966.95-1.3 1.614l-.008-2.143-1.872.006.035 9.572 2.012-.01-.02-5.858c.265-.625.7-1.104 1.293-1.442.593-.33 1.282-.513 2.063-.543l-.008-1.81c-.057-.01-.126-.02-.202-.02zM111.288 24.536c-.43-.45-.948-.808-1.55-1.078-.606-.263-1.282-.396-2.026-.394-.744.003-1.418.14-2.017.41-.604.275-1.123.635-1.554 1.088-.434.446-.764.98-.99 1.58-.23.603-.338 1.242-.335 1.896s.115 1.29.348 1.892c.232.607.566 1.13.995 1.576.43.45.942.81 1.55 1.073.602.27 1.287.4 2.038.397.746-.004 1.42-.138 2.023-.413.6-.268 1.114-.63 1.543-1.084.435-.45.77-.976.996-1.583.23-.604.343-1.24.34-1.895-.003-.655-.118-1.294-.354-1.895-.232-.597-.57-1.128-1.008-1.57zm-.917 4.754c-.152.396-.348.73-.603 1.028-.256.29-.556.526-.907.69-.34.164-.717.247-1.118.25s-.78-.08-1.125-.24c-.346-.164-.65-.392-.913-.677-.248-.283-.455-.62-.603-1.014-.146-.392-.223-.812-.225-1.28 0-.448.076-.872.226-1.27.153-.396.358-.74.61-1.034.25-.3.556-.527.9-.702.35-.172.712-.26 1.106-.263.402 0 .78.085 1.122.25.352.158.652.39.91.68.26.292.455.636.612 1.03.143.4.218.822.22 1.27.004.472-.068.896-.21 1.283zM117.944 31.017c-.178.035-.342.063-.477.063-.325 0-.58-.1-.764-.307-.186-.197-.28-.476-.28-.828l-.04-10.534-2.014.008.04 11.32c.004.7.202 1.237.592 1.604.394.38.935.568 1.63.567.323-.003.676-.044 1.083-.13.402-.076.748-.184 1.04-.32l-.3-1.625c-.154.07-.327.128-.51.182zM128.57 30.835c-.087-.098-.128-.258-.13-.49l-.024-7.192-2.01.007.022 5.964c-.283.667-.675 1.185-1.186 1.54-.515.353-1.056.534-1.646.536-1.206.005-1.816-.854-1.82-2.575l-.02-5.448-2.01.007.02 5.852c.006 1.294.267 2.267.78 2.918.513.645 1.264.972 2.253.968.828-.003 1.586-.183 2.268-.548.68-.363 1.23-.896 1.653-1.59l.048.993c.094.628.523.975 1.28 1.034.122 0 .26-.007.42-.016.158-.018.348-.04.566-.073l-.006-1.726c-.218-.005-.37-.056-.457-.16zM138.278 28.87c-.148-.284-.378-.533-.694-.747-.31-.21-.705-.398-1.177-.555-.48-.157-1.045-.31-1.7-.47-.394-.09-.725-.18-.99-.26-.272-.078-.49-.17-.652-.268-.165-.09-.288-.212-.36-.347-.073-.132-.116-.29-.116-.484-.002-.465.18-.81.53-1.02.355-.214.786-.323 1.3-.324 1.037-.005 2.014.33 2.93 1.007l.857-1.23c-.52-.37-1.097-.668-1.743-.888-.646-.217-1.317-.32-2.014-.32-.523.004-1.018.07-1.468.21-.46.136-.86.335-1.19.594-.337.263-.596.584-.788.962-.195.378-.29.815-.29 1.3.004.37.065.683.184.938.122.263.318.487.592.677.266.187.612.36 1.04.514.43.15.94.3 1.538.44.87.206 1.5.4 1.896.588.393.188.597.484.6.886 0 .425-.177.755-.527.99-.354.23-.832.348-1.447.35-1.156.005-2.32-.395-3.495-1.21l-.838 1.356c.27.206.577.392.93.558.348.16.71.295 1.097.41.385.115.773.2 1.17.264.397.054.795.088 1.18.087.59-.004 1.124-.075 1.6-.214.48-.143.89-.348 1.224-.603.337-.26.595-.57.78-.935.172-.366.264-.776.262-1.224-.007-.403-.076-.75-.222-1.034z"/></g><path fill="#ED1C24" d="M19.936 16.552l1.743-.006-.045-11.81 4.608-.016-.007-1.76-4.607.016-.01-2.4-1.742.005.01 2.402L15.27 3l.007 1.76 4.616-.017"/></g></svg>